<?xml version="1.0" standalone="no"?>
<!DOCTYPE svg PUBLIC "-//W3C//DTD SVG 20010904//EN"
 "http://www.w3.org/TR/2001/REC-SVG-20010904/DTD/svg10.dtd">
<svg version="1.0" xmlns="http://www.w3.org/2000/svg"
 width="16.000000pt" height="16.000000pt" viewBox="0 0 16.000000 16.000000"
 preserveAspectRatio="xMidYMid meet">
<metadata>
Created by potrace 1.11, written by Peter Selinger 2001-2013
</metadata>
<g transform="translate(0.000000,16.000000) scale(0.000823,-0.000823)"
fill="#000000" stroke="none">
<path d="M13219 15037 c-2 -3 -49 -7 -104 -11 -279 -17 -636 -80 -920 -161
-49 -15 -110 -32 -135 -39 -109 -32 -377 -131 -478 -177 -35 -16 -66 -29 -68
-29 -3 0 -80 -38 -172 -83 -443 -222 -856 -516 -1197 -854 -149 -146 -298
-310 -405 -442 -19 -24 -40 -48 -45 -55 -6 -6 -47 -60 -91 -121 -254 -348
-478 -773 -628 -1188 -46 -127 -148 -468 -161 -540 -4 -20 -10 -39 -14 -41 -4
-3 -115 -23 -246 -46 -132 -22 -251 -43 -265 -46 -14 -2 -119 -20 -234 -39
-115 -19 -220 -37 -235 -40 -14 -3 -78 -14 -141 -25 -63 -11 -124 -22 -135
-24 -50 -9 -102 -18 -125 -22 -104 -18 -189 -39 -212 -52 -37 -21 -70 -85 -70
-135 0 -23 7 -80 16 -127 18 -94 224 -1230 266 -1465 5 -27 11 -66 15 -85 3
-19 57 -318 120 -665 63 -346 117 -646 120 -665 3 -19 22 -120 41 -225 50
-277 63 -352 77 -430 l13 -70 59 2 c49 2 234 28 336 48 13 3 41 7 64 10 22 3
47 8 55 10 8 2 204 36 435 75 231 39 443 75 470 80 28 5 64 11 80 14 17 2 90
14 163 26 154 26 137 32 225 -80 164 -210 410 -471 602 -641 27 -24 56 -50 63
-57 79 -73 361 -285 502 -377 242 -158 567 -328 820 -429 478 -192 1011 -314
1504 -343 214 -13 607 -7 756 12 19 2 78 9 130 15 788 92 1607 421 2261 906
758 563 1322 1319 1648 2209 27 72 60 171 75 220 15 50 32 104 36 120 54 177
128 549 145 725 4 36 8 75 10 88 19 126 26 593 12 812 -9 135 -9 137 -32 315
-77 595 -286 1210 -590 1741 -98 171 -308 480 -407 599 -148 179 -208 245
-348 386 -179 180 -269 261 -427 387 -518 410 -1124 710 -1783 883 -122 32
-365 84 -440 94 -25 3 -56 8 -70 10 -111 21 -358 37 -626 41 -170 3 -312 3
-315 1z"/>
<path d="M6490 11194 c-154 -20 -809 -124 -1190 -189 -14 -2 -230 -38 -480
-80 -250 -41 -507 -84 -570 -95 -63 -11 -128 -22 -145 -24 -814 -134 -1168
-201 -1250 -236 -90 -39 -183 -144 -232 -262 -31 -76 -38 -183 -18 -303 7 -44
28 -170 45 -280 26 -167 85 -528 104 -640 3 -16 16 -100 30 -185 14 -85 28
-166 30 -180 3 -14 7 -41 10 -60 3 -19 53 -321 111 -670 58 -349 108 -646 110
-660 2 -14 25 -146 50 -295 100 -593 101 -596 152 -678 62 -100 155 -171 275
-211 64 -22 88 -25 154 -21 62 4 613 86 744 111 26 5 307 52 350 59 14 2 95
16 180 30 85 15 169 29 185 31 17 3 37 7 45 9 8 2 38 6 65 10 28 3 57 8 65 10
8 2 33 6 55 10 22 3 256 42 520 86 264 44 491 82 505 84 14 2 66 11 115 19 50
9 108 18 130 22 150 23 669 117 710 129 151 43 286 197 321 367 15 73 15 84
-21 318 -21 141 -231 1431 -250 1540 -15 82 -25 139 -28 165 -6 36 -35 218
-43 260 -16 94 -33 194 -37 220 -20 126 -49 299 -57 345 -15 81 -90 538 -96
585 -14 109 -68 346 -88 390 -35 76 -100 149 -174 198 -127 83 -193 95 -382
71z"/>
<path d="M1508 9105 c-2 -1 -34 -5 -73 -9 -170 -15 -325 -85 -438 -199 -108
-108 -177 -221 -213 -352 -23 -85 -27 -273 -7 -361 37 -163 137 -317 285 -437
l47 -39 -24 -48 c-62 -123 -68 -146 -72 -317 -5 -147 -3 -170 17 -235 35 -117
87 -204 174 -296 102 -106 194 -167 315 -209 90 -31 104 -33 231 -33 83 0 154
6 185 14 277 76 477 274 551 547 13 50 17 95 14 204 -6 281 -8 265 28 338 43
87 74 112 159 126 37 7 90 17 116 23 l48 10 -6 42 c-9 60 -11 74 -41 266 -14
96 -30 178 -34 183 -3 4 -65 0 -136 -9 l-129 -17 -53 23 c-81 35 -139 107
-218 268 -85 174 -117 223 -191 295 -127 124 -282 198 -443 213 -30 3 -63 7
-72 8 -9 2 -18 3 -20 1z m109 -357 c182 -62 289 -238 260 -428 -18 -121 -100
-231 -214 -287 -53 -26 -67 -28 -168 -28 -127 0 -171 17 -257 94 -185 166
-164 464 42 603 101 68 222 84 337 46z m296 -1087 c238 -114 292 -432 106
-619 -151 -151 -413 -147 -554 10 -21 22 -51 70 -68 107 -27 57 -31 77 -32
151 0 152 68 271 193 338 79 42 122 52 213 48 60 -3 91 -11 142 -35z"/>
<path d="M6520 6514 c-47 -8 -112 -18 -145 -23 -125 -20 -310 -53 -314 -57 -5
-5 27 -46 393 -504 382 -477 549 -683 605 -742 l44 -47 48 38 c27 21 72 59
101 83 29 25 179 150 333 279 287 239 553 464 683 576 l73 63 -47 50 c-102
109 -263 204 -389 230 -64 14 -224 17 -290 6 -128 -21 -283 -85 -419 -174 -43
-29 -81 -52 -85 -51 -3 0 -46 27 -96 59 -178 117 -351 218 -380 223 -16 3 -68
-1 -115 -9z"/>
<path d="M4766 6219 c-27 -4 -63 -10 -80 -13 -183 -29 -276 -50 -280 -65 -5
-15 -8 -167 -22 -1130 l-5 -383 708 7 c389 4 755 8 813 9 l105 2 -3 74 c-3 94
-25 185 -67 277 -103 223 -287 366 -555 431 -80 19 -104 23 -225 38 -27 3 -53
9 -56 12 -4 4 -16 36 -27 72 -116 366 -217 666 -226 672 -12 9 -13 9 -80 -3z"/>
<path d="M6713 5188 c-39 -84 -73 -163 -77 -176 -7 -21 1 -27 116 -81 203 -95
213 -99 216 -90 3 8 -131 391 -148 421 -6 10 -10 24 -10 31 0 7 -6 21 -13 31
-12 16 -21 1 -84 -136z"/>
</g>
</svg>
